<svg width="380" height="278" viewBox="0 0 380 278" fill="none" xmlns="http://www.w3.org/2000/svg">
<line x1="0.167969" y1="102.486" x2="379.462" y2="102.486" stroke="#FEDBD0" stroke-width="2.93678"/>
<path d="M24.5338 90.308C23.5728 90.0074 22.792 89.6467 22.1914 89.1657L23.2125 86.8209C23.8131 87.2417 24.4738 87.6025 25.2546 87.843C26.0354 88.0835 26.8162 88.2037 27.597 88.2037C28.498 88.2037 29.0986 88.0835 29.519 87.7829C29.9395 87.5424 30.1196 87.1816 30.1196 86.7608C30.1196 86.4602 29.9995 86.1595 29.7593 85.9792C29.519 85.7988 29.2187 85.6786 28.8583 85.4982C28.4379 85.3779 27.9574 85.2577 27.2967 85.0773C26.2757 84.8368 25.4348 84.5963 24.7741 84.3559C24.1134 84.1154 23.5728 83.7546 23.0923 83.2135C22.6719 82.6724 22.4317 82.0111 22.4317 81.1092C22.4317 80.3276 22.6118 79.6062 23.0323 79.0049C23.4527 78.4037 24.0533 77.8626 24.8942 77.5019C25.7351 77.1411 26.7562 76.9608 27.9574 76.9608C28.7983 76.9608 29.6391 77.081 30.42 77.2614C31.2008 77.4417 31.9215 77.7424 32.5221 78.1031L31.6813 80.4479C30.48 79.7865 29.2187 79.4258 28.0175 79.4258C27.1766 79.4258 26.5159 79.546 26.0955 79.8466C25.675 80.1473 25.4948 80.508 25.4948 80.9289C25.4948 81.4098 25.7351 81.7105 26.2156 81.9509C26.6961 82.1914 27.4168 82.3718 28.3778 82.6123C29.3989 82.8528 30.2398 83.0933 30.8404 83.3338C31.5011 83.5743 32.0416 83.935 32.5221 84.4761C33.0026 85.0172 33.2429 85.6786 33.2429 86.5804C33.2429 87.362 33.0026 88.0233 32.5822 88.6847C32.1618 89.2859 31.5011 89.7669 30.6602 90.1276C29.8193 90.5485 28.7983 90.7289 27.597 90.7289C26.5159 90.7289 25.4948 90.5485 24.5338 90.308Z" fill="#E81A3F"/>
<path d="M86.9358 90.4884V82.4921L83.0318 89.0454H81.6503L77.7463 82.6724V90.4884H74.8633V77.2013H77.3859L82.3711 85.4381L87.2361 77.2013H89.7588L89.8188 90.4884H86.9358Z" fill="#442C2E"/>
<path d="M134.862 79.6663H130.598V77.2013H142.19V79.7264H137.925V90.4884H134.862V79.6663Z" fill="#442C2E"/>
<path d="M201.907 77.2013L197.582 90.4884H194.279L191.336 81.47L188.333 90.4884H185.029L180.645 77.2013H183.828L186.831 86.5203L189.954 77.2013H192.777L195.84 86.6405L198.904 77.2013H201.907Z" fill="#442C2E"/>
<path d="M243.218 79.6663H238.953V77.2013H250.545V79.7264H246.281V90.4884H243.218V79.6663Z" fill="#442C2E"/>
<path d="M297.641 79.6663V83.1534H303.768V85.6184H297.641V90.4884H294.578V77.2013H304.609V79.6663H297.641Z" fill="#442C2E"/>
<path d="M349.655 90.308C348.694 90.0074 347.913 89.6466 347.312 89.2258L348.334 86.881C348.874 87.3018 349.595 87.6626 350.376 87.9031C351.157 88.1436 351.937 88.2638 352.718 88.2638C353.619 88.2638 354.22 88.1436 354.64 87.8429C355.061 87.6025 355.241 87.2417 355.241 86.8209C355.241 86.5202 355.121 86.2196 354.88 86.0393C354.64 85.8589 354.34 85.6785 353.919 85.5583C353.559 85.438 353.018 85.3178 352.358 85.1374C351.337 84.8969 350.496 84.6564 349.895 84.4159C349.234 84.1755 348.694 83.8147 348.213 83.2736C347.733 82.7325 347.493 82.011 347.493 81.1693C347.493 80.3877 347.673 79.6662 348.093 79.065C348.514 78.4638 349.114 77.9227 349.955 77.5619C350.796 77.2012 351.817 77.0208 353.018 77.0208C353.859 77.0208 354.7 77.1411 355.481 77.3215C356.262 77.5018 356.983 77.8024 357.583 78.1632L356.622 80.508C355.421 79.7865 354.16 79.4859 352.958 79.4859C352.118 79.4859 351.457 79.6061 351.036 79.9067C350.616 80.2074 350.436 80.5681 350.436 80.9889C350.436 81.4699 350.676 81.7705 351.156 82.011C351.637 82.2515 352.358 82.4319 353.319 82.6724C354.34 82.9129 355.181 83.1534 355.781 83.3939C356.442 83.6344 356.983 83.9951 357.463 84.5362C357.944 85.0773 358.184 85.7386 358.184 86.6405C358.184 87.4221 357.944 88.0834 357.523 88.7448C357.103 89.346 356.442 89.8871 355.601 90.2479C354.76 90.6086 353.739 90.789 352.538 90.789C351.637 90.7288 350.616 90.5485 349.655 90.308Z" fill="#442C2E"/>
<g opacity="0.9">
<path d="M137.046 115.857V129.144H133.983V118.322H131.34V115.857H137.046Z" fill="#442C2E"/>
</g>
<g opacity="0.9">
<path d="M192.256 126.662V129.187H182.226V127.203L187.331 122.333C187.872 121.792 188.232 121.371 188.412 121.01C188.592 120.65 188.712 120.289 188.712 119.928C188.712 119.387 188.532 118.966 188.172 118.726C187.811 118.425 187.271 118.305 186.61 118.305C186.01 118.305 185.529 118.425 185.049 118.666C184.568 118.906 184.208 119.207 183.847 119.688L181.625 118.245C182.166 117.463 182.886 116.862 183.787 116.441C184.688 116.02 185.769 115.78 186.911 115.78C187.872 115.78 188.772 115.96 189.493 116.261C190.214 116.561 190.815 117.042 191.235 117.644C191.655 118.245 191.836 118.906 191.836 119.748C191.836 120.469 191.655 121.131 191.355 121.792C191.055 122.453 190.454 123.175 189.613 123.956L186.55 126.842H192.256V126.662Z" fill="#442C2E"/>
</g>
<g opacity="0.9">
<path d="M244.76 122.591C245.361 123.252 245.661 124.094 245.661 125.116C245.661 125.898 245.481 126.619 245.06 127.22C244.64 127.882 244.039 128.423 243.198 128.783C242.357 129.204 241.336 129.385 240.135 129.385C239.174 129.385 238.273 129.264 237.372 129.024C236.471 128.783 235.69 128.423 235.09 127.942L236.291 125.597C236.772 125.958 237.372 126.258 238.033 126.499C238.694 126.679 239.354 126.799 240.075 126.799C240.856 126.799 241.456 126.679 241.877 126.379C242.297 126.078 242.538 125.657 242.538 125.116C242.538 124.034 241.697 123.493 240.075 123.493H238.694V121.448L241.396 118.382H235.751V115.917H245.06V117.901L242.057 121.328C243.258 121.509 244.159 121.929 244.76 122.591Z" fill="#442C2E"/>
</g>
<g opacity="0.9">
<path d="M301.239 126.379H299.076V129.144H296.073V126.379H288.926V124.334L295.172 115.917H298.416L292.59 123.913H296.133V121.448H299.016V123.913H301.179V126.379H301.239Z" fill="#442C2E"/>
</g>
<g opacity="0.9">
<path d="M354.457 121.99C355.358 122.711 355.778 123.733 355.778 124.996C355.778 125.777 355.598 126.559 355.177 127.22C354.757 127.882 354.156 128.423 353.315 128.844C352.475 129.264 351.454 129.445 350.252 129.445C349.291 129.445 348.39 129.325 347.489 129.084C346.588 128.844 345.808 128.483 345.207 128.002L346.408 125.657C346.889 126.018 347.489 126.318 348.15 126.559C348.811 126.739 349.471 126.86 350.192 126.86C350.973 126.86 351.574 126.679 351.994 126.379C352.415 126.078 352.655 125.657 352.655 125.116C352.655 124.575 352.415 124.094 351.934 123.853C351.454 123.553 350.673 123.433 349.532 123.433H346.108L346.769 115.977H354.877V118.442H349.351L349.171 120.967H350.252C352.234 120.847 353.616 121.268 354.457 121.99Z" fill="#442C2E"/>
</g>
<g opacity="0.9">
<path d="M29.6075 155.959C30.3282 156.32 30.8688 156.801 31.2892 157.402C31.7097 158.003 31.8899 158.725 31.8899 159.566C31.8899 160.468 31.6496 161.25 31.2292 161.911C30.8087 162.573 30.2081 163.114 29.4273 163.474C28.6465 163.835 27.8056 164.015 26.8446 164.015C24.9827 164.015 23.5412 163.474 22.4601 162.332C21.439 161.19 20.8984 159.566 20.8984 157.462C20.8984 155.959 21.1987 154.636 21.7393 153.614C22.2799 152.532 23.1207 151.75 24.1418 151.149C25.1629 150.608 26.3641 150.307 27.6855 150.307C28.4062 150.307 29.0669 150.368 29.7276 150.548C30.3883 150.728 30.9289 150.909 31.4094 151.209L30.2682 153.494C29.6075 153.073 28.7666 152.833 27.8056 152.833C26.6644 152.833 25.7635 153.133 25.1028 153.795C24.4421 154.456 24.0817 155.418 24.0217 156.68C24.8025 155.899 25.8836 155.478 27.3251 155.478C28.166 155.478 28.9468 155.598 29.6075 155.959ZM28.2861 161.19C28.7065 160.829 28.8867 160.348 28.8867 159.747C28.8867 159.146 28.7065 158.665 28.2861 158.304C27.8657 157.943 27.3251 157.763 26.6644 157.763C26.0037 157.763 25.4632 157.943 25.0427 158.304C24.6223 158.665 24.3821 159.146 24.3821 159.747C24.3821 160.348 24.5622 160.829 24.9827 161.19C25.4031 161.55 25.9437 161.731 26.6644 161.731C27.3251 161.731 27.8657 161.55 28.2861 161.19Z" fill="#E81A3F"/>
</g>
<g opacity="0.9">
<path d="M82.9304 150.488V152.472L78.0052 163.775H74.6417L79.3867 153.013H75.0622V155.177H72.3594V150.488H82.9304Z" fill="#442C2E"/>
</g>
<g opacity="0.9">
<path d="M134.493 158.123C134.854 158.664 135.034 159.266 135.034 159.987C135.034 160.829 134.794 161.55 134.313 162.152C133.833 162.753 133.172 163.234 132.331 163.595C131.49 163.955 130.529 164.076 129.388 164.076C128.247 164.076 127.286 163.895 126.445 163.595C125.604 163.234 124.943 162.813 124.463 162.152C123.982 161.55 123.742 160.829 123.742 159.987C123.742 159.266 123.922 158.664 124.283 158.123C124.643 157.582 125.124 157.161 125.784 156.861C125.304 156.56 124.883 156.199 124.643 155.718C124.403 155.237 124.223 154.756 124.223 154.155C124.223 153.374 124.463 152.712 124.883 152.171C125.304 151.63 125.904 151.149 126.685 150.849C127.466 150.548 128.367 150.368 129.328 150.368C130.349 150.368 131.25 150.548 132.031 150.849C132.812 151.149 133.412 151.57 133.833 152.171C134.253 152.712 134.493 153.434 134.493 154.155C134.493 154.756 134.373 155.298 134.073 155.718C133.833 156.199 133.412 156.56 132.932 156.861C133.652 157.161 134.133 157.582 134.493 158.123ZM131.19 161.25C131.61 160.889 131.851 160.408 131.851 159.867C131.851 159.266 131.61 158.845 131.19 158.484C130.769 158.123 130.109 158.003 129.388 158.003C128.607 158.003 128.007 158.183 127.586 158.484C127.166 158.845 126.926 159.266 126.926 159.867C126.926 160.468 127.166 160.949 127.586 161.25C128.007 161.61 128.607 161.791 129.388 161.791C130.169 161.791 130.769 161.61 131.19 161.25ZM127.886 152.953C127.526 153.253 127.346 153.674 127.346 154.155C127.346 154.636 127.526 155.057 127.886 155.358C128.247 155.658 128.727 155.779 129.388 155.779C130.049 155.779 130.529 155.658 130.89 155.358C131.25 155.057 131.43 154.696 131.43 154.155C131.43 153.614 131.25 153.253 130.89 152.953C130.529 152.652 129.989 152.532 129.388 152.532C128.787 152.532 128.247 152.652 127.886 152.953Z" fill="#442C2E"/>
</g>
<g opacity="0.9">
<path d="M185.725 151.991C186.746 153.133 187.287 154.757 187.287 156.861C187.287 158.364 186.987 159.687 186.446 160.709C185.905 161.791 185.065 162.573 184.043 163.174C183.022 163.715 181.821 164.015 180.5 164.015C179.779 164.015 179.118 163.955 178.458 163.775C177.797 163.595 177.256 163.414 176.836 163.114L177.977 160.829C178.638 161.25 179.479 161.49 180.44 161.49C181.581 161.49 182.482 161.13 183.143 160.468C183.803 159.807 184.164 158.845 184.224 157.582C183.443 158.364 182.302 158.785 180.92 158.785C180.079 158.785 179.299 158.604 178.578 158.244C177.857 157.883 177.316 157.402 176.956 156.801C176.536 156.2 176.355 155.478 176.355 154.636C176.355 153.734 176.596 152.953 177.016 152.292C177.437 151.63 178.037 151.089 178.818 150.728C179.599 150.368 180.44 150.187 181.341 150.187C183.263 150.247 184.704 150.849 185.725 151.991ZM183.263 155.959C183.683 155.598 183.923 155.117 183.923 154.516C183.923 153.915 183.743 153.434 183.323 153.073C182.902 152.712 182.362 152.532 181.641 152.532C180.98 152.532 180.44 152.712 180.019 153.073C179.599 153.434 179.419 153.915 179.419 154.516C179.419 155.117 179.599 155.598 180.019 155.959C180.44 156.32 180.98 156.5 181.641 156.5C182.302 156.56 182.842 156.38 183.263 155.959Z" fill="#442C2E"/>
</g>
<g opacity="0.9">
<path d="M233.52 150.488V163.775H230.457V152.953H227.754V150.488H233.52Z" fill="#442C2E"/>
<path d="M238.568 163.174C237.727 162.633 237.006 161.851 236.525 160.829C236.045 159.807 235.805 158.544 235.805 157.161C235.805 155.779 236.045 154.516 236.525 153.494C237.006 152.472 237.667 151.69 238.568 151.149C239.408 150.608 240.43 150.307 241.511 150.307C242.592 150.307 243.613 150.608 244.454 151.149C245.295 151.69 246.015 152.472 246.496 153.494C246.976 154.516 247.217 155.779 247.217 157.161C247.217 158.544 246.976 159.807 246.496 160.829C246.015 161.851 245.355 162.633 244.454 163.174C243.613 163.715 242.592 164.015 241.511 164.015C240.43 164.015 239.408 163.775 238.568 163.174ZM243.433 160.348C243.913 159.626 244.153 158.604 244.153 157.101C244.153 155.658 243.913 154.576 243.433 153.855C242.952 153.133 242.351 152.833 241.511 152.833C240.73 152.833 240.069 153.193 239.649 153.855C239.168 154.576 238.928 155.598 238.928 157.101C238.928 158.544 239.168 159.626 239.649 160.348C240.129 161.069 240.73 161.37 241.511 161.37C242.351 161.43 242.952 161.069 243.433 160.348Z" fill="#442C2E"/>
</g>
<g opacity="0.9">
<path d="M293.409 150.488V163.775H290.346V152.953H287.703V150.488H293.409Z" fill="#442C2E"/>
<path d="M300.854 150.488V163.775H297.791V152.953H295.148V150.488H300.854Z" fill="#442C2E"/>
</g>
<g opacity="0.9">
<path d="M347.241 150.488V163.775H344.178V152.953H341.535V150.488H347.241Z" fill="#442C2E"/>
<path d="M359.498 161.31V163.835H349.468V161.851L354.573 156.981C355.114 156.44 355.474 156.019 355.654 155.658C355.834 155.298 355.955 154.937 355.955 154.576C355.955 154.035 355.774 153.614 355.414 153.374C355.054 153.073 354.513 152.953 353.852 152.953C353.252 152.953 352.771 153.073 352.291 153.314C351.81 153.554 351.45 153.855 351.089 154.336L348.867 152.893C349.408 152.111 350.129 151.51 351.029 151.089C351.93 150.668 353.012 150.428 354.153 150.428C355.114 150.428 356.015 150.608 356.735 150.909C357.456 151.209 358.057 151.69 358.477 152.292C358.898 152.893 359.078 153.554 359.078 154.396C359.078 155.117 358.898 155.779 358.597 156.44C358.297 157.101 357.696 157.823 356.856 158.604L353.792 161.49H359.498V161.31Z" fill="#442C2E"/>
</g>
<g opacity="0.9">
<path d="M22.7567 185.119V198.406H19.6935V187.584H17.0508V185.119H22.7567Z" fill="#E81A3F"/>
<path d="M33.9318 191.852C34.5324 192.514 34.8327 193.355 34.8327 194.377C34.8327 195.159 34.6525 195.88 34.2321 196.482C33.8116 197.143 33.211 197.684 32.3701 198.045C31.5293 198.466 30.5082 198.646 29.307 198.646C28.346 198.646 27.445 198.526 26.5441 198.285C25.6432 198.045 24.8623 197.684 24.2617 197.203L25.463 194.858C25.9435 195.219 26.5441 195.52 27.2048 195.76C27.8655 195.941 28.5262 196.061 29.2469 196.061C30.0277 196.061 30.6283 195.941 31.0488 195.64C31.4692 195.339 31.7095 194.918 31.7095 194.377C31.7095 193.295 30.8686 192.754 29.2469 192.754H27.9255V190.71L30.6283 187.644H24.9825V185.179H34.2921V187.163L31.289 190.59C32.4302 190.71 33.3311 191.131 33.9318 191.852Z" fill="#E81A3F"/>
</g>
<g opacity="0.9">
<path d="M75.6161 185.118V198.406H72.5529V187.584H69.9102V185.118H75.6161Z" fill="black"/>
<path d="M90.094 195.64H87.9318V198.406H84.9287V195.64H77.7812V193.596L84.0277 185.179H87.2711L81.4451 193.175H84.9887V190.71H87.8717V193.175H90.034V195.64H90.094Z" fill="black"/>
</g>
<g opacity="0.9">
<path d="M130.679 185.119V198.406H127.615V187.584H124.973V185.119H130.679Z" fill="#442C2E"/>
<path d="M141.668 191.251C142.569 191.972 142.989 192.995 142.989 194.257C142.989 195.039 142.809 195.82 142.388 196.482C141.968 197.143 141.367 197.684 140.526 198.105C139.686 198.526 138.664 198.706 137.463 198.706C136.502 198.706 135.601 198.586 134.7 198.345C133.799 198.105 133.019 197.744 132.418 197.263L133.619 194.918C134.1 195.279 134.7 195.58 135.361 195.82C136.022 196.001 136.682 196.121 137.403 196.121C138.184 196.121 138.785 195.941 139.205 195.64C139.625 195.339 139.866 194.918 139.866 194.377C139.866 193.836 139.625 193.355 139.145 193.115C138.664 192.814 137.884 192.694 136.742 192.694H133.319L133.98 185.239H142.088V187.704H136.562L136.382 190.229H137.463C139.385 190.109 140.767 190.469 141.668 191.251Z" fill="#442C2E"/>
</g>
<g opacity="0.9">
<path d="M184.507 185.118V198.406H181.444V187.584H178.801V185.118H184.507Z" fill="#442C2E"/>
<path d="M195.561 190.59C196.281 190.95 196.822 191.431 197.182 192.033C197.603 192.634 197.783 193.355 197.783 194.197C197.783 195.099 197.543 195.88 197.122 196.542C196.702 197.203 196.101 197.744 195.32 198.105C194.54 198.466 193.699 198.646 192.798 198.646C190.936 198.646 189.494 198.105 188.413 196.963C187.392 195.82 186.852 194.197 186.852 192.093C186.852 190.59 187.152 189.267 187.692 188.245C188.233 187.163 189.074 186.381 190.095 185.78C191.116 185.239 192.317 184.938 193.639 184.938C194.359 184.938 195.02 184.998 195.681 185.179C196.341 185.359 196.882 185.539 197.362 185.84L196.221 188.125C195.561 187.704 194.72 187.463 193.759 187.463C192.618 187.463 191.717 187.764 191.056 188.425C190.395 189.087 190.035 190.049 189.975 191.311C190.756 190.53 191.837 190.109 193.278 190.109C194.059 190.049 194.84 190.229 195.561 190.59ZM194.239 195.82C194.66 195.46 194.84 194.979 194.84 194.377C194.84 193.776 194.66 193.295 194.239 192.934C193.819 192.574 193.278 192.393 192.618 192.393C191.957 192.393 191.416 192.574 190.996 192.934C190.575 193.295 190.335 193.776 190.335 194.377C190.335 194.979 190.515 195.46 190.936 195.82C191.356 196.181 191.897 196.361 192.618 196.361C193.278 196.361 193.819 196.181 194.239 195.82Z" fill="#442C2E"/>
</g>
<g opacity="0.9">
<path d="M238.35 185.119V198.406H235.287V187.584H232.645V185.119H238.35Z" fill="#442C2E"/>
<path d="M251.092 185.119V187.103L246.167 198.406H242.803L247.548 187.644H243.164V189.808H240.461V185.119H251.092Z" fill="#442C2E"/>
</g>
<g opacity="0.9">
<path d="M292.179 185.119V198.406H289.115V187.584H286.473V185.119H292.179Z" fill="#442C2E"/>
<path d="M305.079 192.694C305.44 193.235 305.62 193.836 305.62 194.558C305.62 195.399 305.38 196.121 304.899 196.722C304.419 197.323 303.758 197.804 302.917 198.165C302.076 198.526 301.115 198.646 299.974 198.646C298.833 198.646 297.872 198.466 297.031 198.165C296.19 197.804 295.529 197.384 295.049 196.722C294.568 196.121 294.328 195.399 294.328 194.558C294.328 193.836 294.508 193.235 294.869 192.694C295.229 192.153 295.71 191.732 296.37 191.431C295.89 191.131 295.469 190.77 295.229 190.289C294.989 189.808 294.809 189.327 294.809 188.726C294.809 187.944 295.049 187.283 295.469 186.742C295.89 186.201 296.49 185.72 297.271 185.419C298.052 185.118 298.953 184.938 299.914 184.938C300.935 184.938 301.836 185.118 302.617 185.419C303.398 185.72 303.998 186.141 304.419 186.742C304.839 187.283 305.079 188.004 305.079 188.726C305.079 189.327 304.959 189.868 304.659 190.289C304.419 190.77 303.998 191.131 303.518 191.431C304.178 191.732 304.719 192.213 305.079 192.694ZM301.776 195.88C302.196 195.52 302.437 195.039 302.437 194.498C302.437 193.896 302.196 193.476 301.776 193.115C301.355 192.754 300.695 192.634 299.974 192.634C299.193 192.634 298.593 192.814 298.172 193.115C297.752 193.476 297.511 193.896 297.511 194.498C297.511 195.099 297.752 195.58 298.172 195.88C298.593 196.241 299.193 196.422 299.974 196.422C300.755 196.361 301.355 196.181 301.776 195.88ZM298.472 187.584C298.112 187.884 297.932 188.305 297.932 188.786C297.932 189.267 298.112 189.688 298.472 189.988C298.833 190.289 299.313 190.409 299.974 190.409C300.635 190.409 301.115 190.289 301.476 189.988C301.836 189.688 302.016 189.327 302.016 188.786C302.016 188.245 301.836 187.884 301.476 187.584C301.115 187.283 300.575 187.163 299.974 187.163C299.373 187.163 298.833 187.283 298.472 187.584Z" fill="#442C2E"/>
</g>
<g opacity="0.9">
<path d="M347.241 185.119V198.406H344.178V187.584H341.535V185.119H347.241Z" fill="#442C2E"/>
<path d="M358.596 186.622C359.617 187.764 360.158 189.387 360.158 191.492C360.158 192.995 359.858 194.317 359.317 195.339C358.777 196.422 357.936 197.203 356.915 197.804C355.894 198.346 354.692 198.646 353.371 198.646C352.65 198.646 351.989 198.586 351.329 198.406C350.668 198.225 350.128 198.045 349.707 197.744L350.848 195.46C351.509 195.881 352.35 196.121 353.311 196.121C354.452 196.121 355.353 195.76 356.014 195.099C356.674 194.438 357.035 193.476 357.095 192.213C356.314 192.995 355.173 193.416 353.791 193.416C352.95 193.416 352.17 193.235 351.449 192.874C350.728 192.514 350.188 192.033 349.827 191.431C349.407 190.83 349.227 190.109 349.227 189.267C349.227 188.365 349.467 187.584 349.887 186.922C350.308 186.261 350.908 185.72 351.689 185.359C352.47 184.998 353.311 184.818 354.212 184.818C356.134 184.878 357.575 185.479 358.596 186.622ZM356.134 190.59C356.554 190.229 356.794 189.748 356.794 189.147C356.794 188.546 356.614 188.065 356.194 187.704C355.773 187.343 355.233 187.163 354.512 187.163C353.851 187.163 353.311 187.343 352.89 187.704C352.47 188.065 352.29 188.546 352.29 189.147C352.29 189.748 352.47 190.229 352.89 190.59C353.311 190.951 353.851 191.131 354.512 191.131C355.173 191.131 355.713 190.951 356.134 190.59Z" fill="#442C2E"/>
</g>
<g opacity="0.9">
<path d="M24.8576 230.511V233.036H14.8272V231.052L19.9325 226.182C20.4731 225.641 20.8334 225.22 21.0136 224.86C21.1938 224.499 21.3139 224.138 21.3139 223.777C21.3139 223.236 21.1337 222.815 20.7734 222.575C20.413 222.274 19.8724 222.154 19.2117 222.154C18.6111 222.154 18.1306 222.274 17.6501 222.515C17.1696 222.755 16.8092 223.056 16.4489 223.537L14.2266 222.094C14.7671 221.312 15.4879 220.711 16.3888 220.29C17.2897 219.869 18.3709 219.629 19.5121 219.629C20.4731 219.629 21.374 219.809 22.0947 220.11C22.8155 220.411 23.4161 220.891 23.8366 221.493C24.257 222.094 24.4372 222.755 24.4372 223.597C24.4372 224.318 24.257 224.98 23.9567 225.641C23.6564 226.303 23.0557 227.024 22.2149 227.806L19.1517 230.691H24.8576V230.511Z" fill="#E81A3F"/>
<path d="M28.8801 232.435C28.0392 231.894 27.3184 231.112 26.8379 230.09C26.3574 229.068 26.1172 227.806 26.1172 226.423C26.1172 224.98 26.3574 223.777 26.8379 222.755C27.3184 221.733 27.9791 220.952 28.8801 220.411C29.7209 219.869 30.742 219.569 31.8231 219.569C32.9042 219.569 33.9253 219.869 34.7662 220.411C35.607 220.952 36.3278 221.733 36.8083 222.755C37.2888 223.777 37.529 225.04 37.529 226.423C37.529 227.866 37.2888 229.068 36.8083 230.09C36.3278 231.112 35.6671 231.894 34.7662 232.435C33.9253 232.976 32.9042 233.277 31.8231 233.277C30.6819 233.277 29.7209 232.976 28.8801 232.435ZM33.685 229.609C34.1655 228.888 34.4058 227.866 34.4058 226.363C34.4058 224.92 34.1655 223.837 33.685 223.116C33.2046 222.395 32.6039 222.094 31.7631 222.094C30.9822 222.094 30.3216 222.455 29.9011 223.116C29.4206 223.837 29.1804 224.86 29.1804 226.363C29.1804 227.806 29.4206 228.888 29.9011 229.609C30.3816 230.331 30.9822 230.631 31.7631 230.631C32.6039 230.631 33.2646 230.331 33.685 229.609Z" fill="#E81A3F"/>
</g>
<g opacity="0.9">
<path d="M80.5412 230.511V233.036H70.5108V231.052L75.6161 226.182C76.1566 225.641 76.517 225.22 76.6972 224.86C76.8774 224.499 76.9975 224.138 76.9975 223.777C76.9975 223.236 76.8173 222.816 76.4569 222.575C76.0966 222.274 75.556 222.154 74.8953 222.154C74.2947 222.154 73.8142 222.274 73.3337 222.515C72.8532 222.755 72.4928 223.056 72.1325 223.537L69.9102 222.094C70.4507 221.312 71.1715 220.711 72.0724 220.29C72.9733 219.87 74.0545 219.629 75.1956 219.629C76.1566 219.629 77.0576 219.809 77.7783 220.11C78.4991 220.411 79.0997 220.892 79.5201 221.493C79.9406 222.094 80.1208 222.755 80.1208 223.597C80.1208 224.319 79.9406 224.98 79.6403 225.641C79.3399 226.303 78.7393 227.024 77.8985 227.806L74.8353 230.692H80.5412V230.511Z" fill="#442C2E"/>
<path d="M86.9755 219.749V233.036H83.9123V222.214H81.2695V219.749H86.9755Z" fill="#442C2E"/>
</g>
<g opacity="0.9">
<path d="M130.713 230.511V233.036H120.683V231.052L125.788 226.182C126.329 225.641 126.689 225.22 126.869 224.86C127.049 224.499 127.169 224.138 127.169 223.778C127.169 223.236 126.989 222.816 126.629 222.575C126.268 222.274 125.728 222.154 125.067 222.154C124.467 222.154 123.986 222.274 123.506 222.515C123.025 222.755 122.665 223.056 122.304 223.537L120.082 222.094C120.623 221.313 121.343 220.711 122.244 220.29C123.145 219.87 124.226 219.629 125.368 219.629C126.329 219.629 127.229 219.809 127.95 220.11C128.671 220.411 129.272 220.892 129.692 221.493C130.112 222.094 130.293 222.755 130.293 223.597C130.293 224.319 130.112 224.98 129.812 225.641C129.512 226.303 128.911 227.024 128.07 227.806L125.007 230.692H130.713V230.511Z" fill="#442C2E"/>
<path d="M141.944 230.511V233.036H131.913V231.052L137.018 226.182C137.559 225.641 137.919 225.22 138.1 224.86C138.28 224.499 138.4 224.138 138.4 223.778C138.4 223.236 138.22 222.816 137.859 222.575C137.499 222.274 136.958 222.154 136.298 222.154C135.697 222.154 135.217 222.274 134.736 222.515C134.256 222.755 133.895 223.056 133.535 223.537L131.312 222.094C131.853 221.313 132.574 220.711 133.475 220.29C134.376 219.87 135.457 219.629 136.598 219.629C137.559 219.629 138.46 219.809 139.181 220.11C139.901 220.411 140.502 220.892 140.922 221.493C141.343 222.094 141.523 222.755 141.523 223.597C141.523 224.319 141.343 224.98 141.043 225.641C140.742 226.303 140.142 227.024 139.301 227.806L136.238 230.692H141.944V230.511Z" fill="#442C2E"/>
</g>
<g opacity="0.9">
<path d="M185.756 230.511V233.036H175.726V231.052L180.831 226.182C181.372 225.641 181.732 225.22 181.912 224.86C182.092 224.499 182.212 224.138 182.212 223.777C182.212 223.236 182.032 222.816 181.672 222.575C181.311 222.274 180.771 222.154 180.11 222.154C179.51 222.154 179.029 222.274 178.549 222.515C178.068 222.755 177.708 223.056 177.347 223.537L175.125 222.094C175.666 221.312 176.386 220.711 177.287 220.29C178.188 219.87 179.269 219.629 180.411 219.629C181.372 219.629 182.272 219.809 182.993 220.11C183.714 220.411 184.315 220.892 184.735 221.493C185.155 222.094 185.336 222.755 185.336 223.597C185.336 224.319 185.155 224.98 184.855 225.641C184.555 226.303 183.954 227.024 183.113 227.806L180.05 230.692H185.756V230.511Z" fill="#442C2E"/>
<path d="M195.904 226.423C196.505 227.084 196.805 227.926 196.805 228.948C196.805 229.73 196.625 230.451 196.205 231.052C195.784 231.714 195.184 232.255 194.343 232.616C193.502 233.036 192.481 233.217 191.28 233.217C190.319 233.217 189.418 233.097 188.517 232.856C187.616 232.616 186.835 232.255 186.234 231.774L187.436 229.429C187.916 229.79 188.517 230.09 189.177 230.331C189.838 230.511 190.499 230.632 191.22 230.632C192 230.632 192.601 230.511 193.021 230.211C193.442 229.91 193.682 229.489 193.682 228.948C193.682 227.866 192.841 227.325 191.22 227.325H189.838V225.281L192.601 222.214H186.955V219.749H196.265V221.733L193.262 225.16C194.403 225.341 195.304 225.762 195.904 226.423Z" fill="#442C2E"/>
</g>
<g opacity="0.9">
<path d="M239.6 230.511V233.036H229.569V231.052L234.675 226.182C235.215 225.641 235.576 225.22 235.756 224.86C235.936 224.499 236.056 224.138 236.056 223.778C236.056 223.236 235.876 222.816 235.516 222.575C235.155 222.274 234.615 222.154 233.954 222.154C233.353 222.154 232.873 222.274 232.392 222.515C231.912 222.755 231.551 223.056 231.191 223.537L228.969 222.094C229.509 221.313 230.23 220.711 231.131 220.29C232.032 219.87 233.113 219.629 234.254 219.629C235.215 219.629 236.116 219.809 236.837 220.11C237.558 220.411 238.158 220.892 238.579 221.493C238.999 222.094 239.179 222.755 239.179 223.597C239.179 224.319 238.999 224.98 238.699 225.641C238.399 226.303 237.798 227.024 236.957 227.806L233.894 230.692H239.6V230.511Z" fill="#442C2E"/>
<path d="M253.053 230.211H250.83V232.976H247.827V230.211H240.68V228.167L246.926 219.749H250.17L244.343 227.746H247.887V225.281H250.77V227.746H252.932V230.211H253.053Z" fill="#442C2E"/>
</g>
<g opacity="0.9">
<path d="M295.881 230.511V233.036H285.851V231.052L290.956 226.182C291.496 225.641 291.857 225.22 292.037 224.86C292.217 224.499 292.337 224.138 292.337 223.777C292.337 223.236 292.157 222.816 291.797 222.575C291.436 222.274 290.896 222.154 290.235 222.154C289.635 222.154 289.154 222.274 288.674 222.515C288.193 222.755 287.833 223.056 287.472 223.537L285.25 222.094C285.791 221.312 286.511 220.711 287.412 220.29C288.313 219.87 289.394 219.629 290.535 219.629C291.496 219.629 292.397 219.809 293.118 220.11C293.839 220.411 294.44 220.892 294.86 221.493C295.28 222.094 295.461 222.755 295.461 223.597C295.461 224.319 295.28 224.98 294.98 225.641C294.68 226.303 294.079 227.024 293.238 227.806L290.175 230.692H295.881V230.511Z" fill="#442C2E"/>
<path d="M305.859 225.822C306.76 226.543 307.18 227.565 307.18 228.828C307.18 229.609 307 230.391 306.58 231.052C306.159 231.714 305.559 232.255 304.718 232.676C303.877 233.097 302.856 233.277 301.655 233.277C300.694 233.277 299.793 233.157 298.892 232.916C297.991 232.676 297.21 232.315 296.609 231.834L297.811 229.489C298.291 229.85 298.892 230.151 299.552 230.391C300.213 230.571 300.874 230.692 301.595 230.692C302.375 230.692 302.976 230.511 303.396 230.211C303.817 229.91 304.057 229.489 304.057 228.948C304.057 228.407 303.817 227.926 303.336 227.686C302.856 227.385 302.075 227.265 300.934 227.265H297.63L298.291 219.809H306.4V222.274H300.874L300.634 224.74H301.715C303.637 224.74 305.018 225.1 305.859 225.822Z" fill="#442C2E"/>
</g>
<g opacity="0.9">
<path d="M350.94 230.511V233.036H340.909V231.052L346.015 226.182C346.555 225.641 346.915 225.22 347.096 224.86C347.276 224.499 347.396 224.138 347.396 223.777C347.396 223.236 347.216 222.815 346.855 222.575C346.495 222.274 345.954 222.154 345.294 222.154C344.693 222.154 344.213 222.274 343.732 222.515C343.252 222.755 342.891 223.056 342.531 223.537L340.309 222.094C340.849 221.312 341.57 220.711 342.471 220.29C343.372 219.869 344.453 219.629 345.594 219.629C346.555 219.629 347.456 219.809 348.177 220.11C348.898 220.41 349.498 220.891 349.919 221.493C350.339 222.094 350.519 222.755 350.519 223.597C350.519 224.318 350.339 224.98 350.039 225.641C349.738 226.302 349.138 227.024 348.297 227.806L345.234 230.691H350.94V230.511Z" fill="#442C2E"/>
<path d="M360.908 225.22C361.629 225.581 362.17 226.062 362.53 226.663C362.95 227.264 363.131 227.986 363.131 228.828C363.131 229.73 362.89 230.511 362.47 231.172C362.049 231.834 361.449 232.375 360.668 232.736C359.887 233.096 359.046 233.277 358.145 233.277C356.283 233.277 354.842 232.736 353.761 231.593C352.74 230.451 352.199 228.828 352.199 226.723C352.199 225.22 352.5 223.898 353.04 222.876C353.581 221.793 354.422 221.012 355.443 220.411C356.464 219.869 357.665 219.569 358.986 219.569C359.707 219.569 360.368 219.629 361.028 219.809C361.689 219.99 362.23 220.17 362.71 220.471L361.569 222.755C360.908 222.334 360.067 222.094 359.106 222.094C357.965 222.094 357.064 222.395 356.404 223.056C355.743 223.717 355.383 224.679 355.322 225.942C356.103 225.16 357.184 224.739 358.626 224.739C359.467 224.679 360.248 224.86 360.908 225.22ZM359.587 230.451C360.007 230.09 360.188 229.609 360.188 229.008C360.188 228.407 360.007 227.926 359.587 227.565C359.166 227.204 358.626 227.024 357.965 227.024C357.305 227.024 356.764 227.204 356.344 227.565C355.923 227.926 355.683 228.407 355.683 229.008C355.683 229.609 355.863 230.09 356.283 230.451C356.704 230.812 357.244 230.992 357.965 230.992C358.626 230.932 359.166 230.812 359.587 230.451Z" fill="#442C2E"/>
</g>
<g opacity="0.9">
<path d="M25.385 265.142V267.667H15.3545V265.683L20.4598 260.813C21.0004 260.272 21.3608 259.851 21.541 259.49C21.7211 259.13 21.8413 258.769 21.8413 258.408C21.8413 257.867 21.6611 257.446 21.3007 257.206C20.9403 256.905 20.3998 256.785 19.7391 256.785C19.1385 256.785 18.658 256.905 18.1775 257.146C17.697 257.386 17.3366 257.687 16.9762 258.168L14.7539 256.604C15.2945 255.823 16.0152 255.222 16.9162 254.801C17.8171 254.38 18.8982 254.139 20.0394 254.139C21.0004 254.139 21.9013 254.32 22.6221 254.62C23.3428 254.921 23.9435 255.402 24.3639 256.003C24.7843 256.604 24.9645 257.266 24.9645 258.108C24.9645 258.829 24.7843 259.49 24.484 260.152C24.1837 260.753 23.5831 261.474 22.7422 262.256L19.679 265.142H25.385Z" fill="#E81A3F"/>
<path d="M37.0334 254.38V256.364L32.1083 267.667H28.8048L33.5498 256.905H29.1652V259.009H26.4023V254.32H37.0334V254.38Z" fill="#E81A3F"/>
</g>
<g opacity="0.9">
<path d="M79.6896 265.142V267.667H69.6592V265.683L74.7645 260.813C75.3051 260.272 75.6655 259.851 75.8456 259.49C76.0258 259.13 76.146 258.769 76.146 258.408C76.146 257.867 75.9658 257.446 75.6054 257.206C75.245 256.905 74.7045 256.785 74.0438 256.785C73.4431 256.785 72.9626 256.905 72.4821 257.146C72.0016 257.386 71.6413 257.687 71.2809 258.168L69.0586 256.725C69.5992 255.943 70.3199 255.342 71.2208 254.921C72.1218 254.5 73.2029 254.26 74.3441 254.26C75.3051 254.26 76.206 254.44 76.9268 254.741C77.6475 255.041 78.2481 255.522 78.6686 256.123C79.089 256.725 79.2692 257.386 79.2692 258.228C79.2692 258.949 79.089 259.611 78.7887 260.272C78.4884 260.933 77.8878 261.655 77.0469 262.436L73.9837 265.322H79.6896V265.142Z" fill="black"/>
<path d="M91.5793 261.955C91.9397 262.497 92.1198 263.098 92.1198 263.819C92.1198 264.661 91.8796 265.382 91.3991 265.984C90.9186 266.585 90.2579 267.066 89.417 267.427C88.5762 267.787 87.6152 267.908 86.474 267.908C85.3328 267.908 84.3718 267.727 83.5309 267.427C82.6901 267.066 82.0294 266.645 81.5489 265.984C81.0684 265.382 80.8281 264.661 80.8281 263.819C80.8281 263.098 81.0083 262.497 81.3687 261.955C81.7291 261.414 82.2096 260.993 82.8702 260.693C82.3897 260.392 81.9693 260.031 81.7291 259.551C81.4888 259.07 81.3086 258.589 81.3086 257.987C81.3086 257.206 81.5489 256.544 81.9693 255.943C82.3897 255.402 82.9904 254.921 83.7712 254.62C84.552 254.32 85.4529 254.139 86.4139 254.139C87.435 254.139 88.3359 254.32 89.1167 254.62C89.8975 254.921 90.4982 255.342 90.9186 255.943C91.339 256.484 91.5793 257.206 91.5793 257.987C91.5793 258.589 91.4592 259.13 91.1588 259.551C90.9186 260.031 90.4982 260.392 90.0177 260.693C90.6783 260.993 91.2189 261.414 91.5793 261.955ZM88.2759 265.082C88.6963 264.721 88.9365 264.24 88.9365 263.699C88.9365 263.098 88.6963 262.677 88.2759 262.316C87.8554 261.955 87.1947 261.775 86.474 261.775C85.6932 261.775 85.0925 261.955 84.6721 262.316C84.2517 262.677 84.0114 263.098 84.0114 263.699C84.0114 264.3 84.2517 264.781 84.6721 265.082C85.0925 265.443 85.6932 265.623 86.474 265.623C87.2548 265.623 87.8554 265.443 88.2759 265.082ZM84.9724 256.845C84.6121 257.146 84.4319 257.566 84.4319 258.047C84.4319 258.528 84.6121 258.949 84.9724 259.25C85.3328 259.551 85.8133 259.671 86.474 259.671C87.1347 259.671 87.6152 259.551 87.9755 259.25C88.3359 258.949 88.5161 258.589 88.5161 258.047C88.5161 257.506 88.3359 257.146 87.9755 256.845C87.6152 256.544 87.0746 256.424 86.474 256.424C85.8133 256.364 85.3328 256.544 84.9724 256.845Z" fill="black"/>
</g>
<circle opacity="0.9" cx="80.9167" cy="261.79" r="15.4165" stroke="#E81A3F" stroke-width="1.46839"/>
<path d="M89.1863 23.7629C89.1863 26.0493 88.758 28.0075 87.9015 29.6376C87.0519 31.2608 85.8915 32.5041 84.4202 33.3675C82.9559 34.231 81.2947 34.6627 79.4366 34.6627C77.5786 34.6627 75.9139 34.231 74.4426 33.3675C72.9783 32.4972 71.8179 31.2505 70.9614 29.6272C70.1118 27.9971 69.687 26.0423 69.687 23.7629C69.687 21.4766 70.1118 19.5218 70.9614 17.8986C71.8179 16.2685 72.9783 15.0217 74.4426 14.1583C75.9139 13.2949 77.5786 12.8632 79.4366 12.8632C81.2947 12.8632 82.9559 13.2949 84.4202 14.1583C85.8915 15.0217 87.0519 16.2685 87.9015 17.8986C88.758 19.5218 89.1863 21.4766 89.1863 23.7629ZM85.3217 23.7629C85.3217 22.1535 85.0695 20.7962 84.5653 19.6911C84.068 18.579 83.3772 17.7398 82.4931 17.1734C81.609 16.6001 80.5901 16.3134 79.4366 16.3134C78.2831 16.3134 77.2643 16.6001 76.3801 17.1734C75.496 17.7398 74.8018 18.579 74.2976 19.6911C73.8003 20.7962 73.5516 22.1535 73.5516 23.7629C73.5516 25.3723 73.8003 26.7331 74.2976 27.8452C74.8018 28.9503 75.496 29.7896 76.3801 30.3629C77.2643 30.9293 78.2831 31.2125 79.4366 31.2125C80.5901 31.2125 81.609 30.9293 82.4931 30.3629C83.3772 29.7896 84.068 28.9503 84.5653 27.8452C85.0695 26.7331 85.3217 25.3723 85.3217 23.7629ZM99.5965 34.6834C98.0078 34.6834 96.6436 34.3346 95.5039 33.6369C94.3711 32.9393 93.4973 31.9757 92.8826 30.7462C92.2747 29.5098 91.9708 28.0869 91.9708 26.4775C91.9708 24.8612 92.2816 23.4348 92.9033 22.1984C93.5249 20.9551 94.4022 19.9881 95.535 19.2974C96.6747 18.5997 98.0216 18.2509 99.5757 18.2509C100.867 18.2509 102.011 18.4892 103.005 18.9658C104.007 19.4355 104.805 20.1021 105.399 20.9655C105.993 21.822 106.331 22.8235 106.414 23.9702H102.829C102.684 23.2034 102.339 22.5645 101.793 22.0534C101.254 21.5353 100.532 21.2763 99.6275 21.2763C98.8608 21.2763 98.1874 21.4835 97.6072 21.898C97.0269 22.3055 96.5745 22.8926 96.2499 23.6593C95.9321 24.426 95.7733 25.3447 95.7733 26.4153C95.7733 27.4998 95.9321 28.4323 96.2499 29.2128C96.5676 29.9864 97.0131 30.5839 97.5864 31.0052C98.1667 31.4197 98.847 31.6269 99.6275 31.6269C100.18 31.6269 100.674 31.5233 101.109 31.3161C101.551 31.1019 101.921 30.7946 102.218 30.3939C102.515 29.9933 102.719 29.5064 102.829 28.9331H106.414C106.324 30.0589 105.993 31.0571 105.419 31.9274C104.846 32.7908 104.065 33.4677 103.078 33.9581C102.09 34.4416 100.93 34.6834 99.5965 34.6834ZM117.441 18.4581V21.3592H108.292V18.4581H117.441ZM110.551 14.6453H114.301V29.5858C114.301 30.09 114.377 30.4768 114.529 30.7462C114.688 31.0087 114.895 31.1883 115.151 31.285C115.406 31.3817 115.69 31.43 116 31.43C116.235 31.43 116.449 31.4128 116.643 31.3782C116.843 31.3437 116.995 31.3126 117.099 31.285L117.731 34.2171C117.53 34.2862 117.244 34.3622 116.871 34.4451C116.505 34.528 116.056 34.5763 115.524 34.5901C114.584 34.6178 113.738 34.4762 112.985 34.1653C112.233 33.8476 111.635 33.3572 111.193 32.6941C110.758 32.031 110.544 31.2021 110.551 30.2075V14.6453ZM127.348 34.6834C125.794 34.6834 124.447 34.3415 123.308 33.6577C122.168 32.9738 121.284 32.0172 120.655 30.7877C120.033 29.5582 119.723 28.1214 119.723 26.4775C119.723 24.8336 120.033 23.3934 120.655 22.157C121.284 20.9206 122.168 19.9605 123.308 19.2766C124.447 18.5928 125.794 18.2509 127.348 18.2509C128.902 18.2509 130.249 18.5928 131.389 19.2766C132.529 19.9605 133.409 20.9206 134.031 22.157C134.66 23.3934 134.974 24.8336 134.974 26.4775C134.974 28.1214 134.66 29.5582 134.031 30.7877C133.409 32.0172 132.529 32.9738 131.389 33.6577C130.249 34.3415 128.902 34.6834 127.348 34.6834ZM127.369 31.6787C128.212 31.6787 128.916 31.4473 129.483 30.9845C130.049 30.5148 130.47 29.8863 130.747 29.0988C131.03 28.3114 131.172 27.4342 131.172 26.4671C131.172 25.4932 131.03 24.6125 130.747 23.8251C130.47 23.0308 130.049 22.3987 129.483 21.929C128.916 21.4593 128.212 21.2245 127.369 21.2245C126.506 21.2245 125.787 21.4593 125.214 21.929C124.648 22.3987 124.223 23.0308 123.94 23.8251C123.663 24.6125 123.525 25.4932 123.525 26.4671C123.525 27.4342 123.663 28.3114 123.94 29.0988C124.223 29.8863 124.648 30.5148 125.214 30.9845C125.787 31.4473 126.506 31.6787 127.369 31.6787ZM138.323 34.3726V13.1533H142.074V21.0898H142.229C142.423 20.703 142.695 20.292 143.048 19.8568C143.4 19.4148 143.877 19.0383 144.478 18.7275C145.079 18.4098 145.845 18.2509 146.778 18.2509C148.007 18.2509 149.116 18.5652 150.104 19.1937C151.098 19.8154 151.886 20.7375 152.466 21.9601C153.053 23.1758 153.347 24.6678 153.347 26.4361C153.347 28.1836 153.06 29.6687 152.487 30.8913C151.913 32.1139 151.133 33.0464 150.145 33.6887C149.157 34.3311 148.038 34.6523 146.788 34.6523C145.876 34.6523 145.12 34.5003 144.519 34.1964C143.918 33.8925 143.435 33.5264 143.068 33.0982C142.709 32.663 142.43 32.252 142.229 31.8652H142.012V34.3726H138.323ZM142.001 26.4153C142.001 27.4445 142.146 28.3459 142.436 29.1196C142.733 29.8932 143.158 30.4976 143.711 30.9327C144.27 31.361 144.947 31.5751 145.742 31.5751C146.57 31.5751 147.265 31.3541 147.824 30.912C148.384 30.463 148.805 29.8517 149.088 29.0781C149.378 28.2976 149.523 27.41 149.523 26.4153C149.523 25.4276 149.382 24.5504 149.099 23.7837C148.815 23.0169 148.394 22.416 147.835 21.9808C147.275 21.5457 146.577 21.3281 145.742 21.3281C144.94 21.3281 144.26 21.5388 143.7 21.9601C143.141 22.3815 142.716 22.972 142.426 23.7318C142.143 24.4917 142.001 25.3861 142.001 26.4153ZM163.581 34.6834C161.985 34.6834 160.607 34.3518 159.447 33.6887C158.293 33.0187 157.405 32.0724 156.784 30.8498C156.162 29.6203 155.851 28.1732 155.851 26.5086C155.851 24.8716 156.162 23.4348 156.784 22.1984C157.412 20.9551 158.29 19.9881 159.415 19.2974C160.541 18.5997 161.864 18.2509 163.384 18.2509C164.365 18.2509 165.29 18.4098 166.16 18.7275C167.038 19.0383 167.811 19.5218 168.481 20.178C169.158 20.8342 169.69 21.67 170.077 22.6854C170.464 23.6939 170.657 24.8957 170.657 26.291V27.4411H157.613V24.913H167.062C167.055 24.1946 166.9 23.5557 166.596 22.9962C166.292 22.4298 165.867 21.9843 165.321 21.6597C164.782 21.335 164.154 21.1727 163.436 21.1727C162.669 21.1727 161.995 21.3592 161.415 21.7322C160.835 22.0983 160.383 22.5818 160.058 23.1827C159.74 23.7767 159.578 24.4295 159.571 25.1409V27.3478C159.571 28.2734 159.74 29.0677 160.079 29.7308C160.417 30.387 160.89 30.8913 161.498 31.2435C162.106 31.5889 162.817 31.7616 163.632 31.7616C164.178 31.7616 164.672 31.6856 165.114 31.5337C165.556 31.3748 165.939 31.1434 166.264 30.8395C166.589 30.5355 166.834 30.1591 167 29.7101L170.502 30.1038C170.281 31.0294 169.859 31.8376 169.238 32.5283C168.623 33.2121 167.835 33.744 166.875 34.1239C165.915 34.4969 164.817 34.6834 163.581 34.6834ZM173.83 34.3726V18.4581H177.467V21.1105H177.633C177.923 20.1919 178.42 19.4839 179.125 18.9865C179.836 18.4823 180.648 18.2302 181.559 18.2302C181.767 18.2302 181.998 18.2405 182.254 18.2613C182.516 18.2751 182.734 18.2993 182.906 18.3338V21.784C182.748 21.7287 182.495 21.6804 182.15 21.6389C181.812 21.5906 181.483 21.5664 181.166 21.5664C180.482 21.5664 179.867 21.7149 179.321 22.0119C178.783 22.302 178.358 22.7061 178.047 23.2242C177.736 23.7422 177.581 24.3397 177.581 25.0166V34.3726H173.83ZM192.594 34.3726V31.5958L199.961 24.3742C200.665 23.6628 201.252 23.0308 201.722 22.4782C202.192 21.9256 202.544 21.3903 202.779 20.8722C203.014 20.3542 203.131 19.8016 203.131 19.2145C203.131 18.5445 202.979 17.9712 202.675 17.4945C202.371 17.011 201.953 16.638 201.421 16.3756C200.89 16.1131 200.285 15.9818 199.608 15.9818C198.911 15.9818 198.299 16.1269 197.774 16.417C197.249 16.7002 196.842 17.1043 196.552 17.6292C196.269 18.1542 196.127 18.7793 196.127 19.5046H192.47C192.47 18.1577 192.777 16.9869 193.392 15.9922C194.006 14.9976 194.853 14.2274 195.93 13.6817C197.015 13.136 198.258 12.8632 199.66 12.8632C201.083 12.8632 202.333 13.1291 203.411 13.661C204.488 14.1929 205.324 14.9216 205.918 15.8472C206.519 16.7727 206.819 17.8296 206.819 19.0176C206.819 19.812 206.668 20.5925 206.364 21.3592C206.06 22.1259 205.524 22.9755 204.758 23.908C203.998 24.8405 202.931 25.9698 201.556 27.296L197.899 31.0156V31.1607H207.141V34.3726H192.594ZM218.558 34.7766C216.852 34.7766 215.388 34.3449 214.165 33.4815C212.95 32.6112 212.014 31.3575 211.358 29.7205C210.708 28.0765 210.384 26.0976 210.384 23.7837C210.391 21.4697 210.719 19.5011 211.368 17.8779C212.024 16.2478 212.96 15.0045 214.176 14.148C215.398 13.2915 216.859 12.8632 218.558 12.8632C220.258 12.8632 221.719 13.2915 222.941 14.148C224.164 15.0045 225.1 16.2478 225.749 17.8779C226.405 19.508 226.733 21.4766 226.733 23.7837C226.733 26.1045 226.405 28.0869 225.749 29.7308C225.1 31.3679 224.164 32.6181 222.941 33.4815C221.725 34.3449 220.265 34.7766 218.558 34.7766ZM218.558 31.5337C219.885 31.5337 220.931 30.8809 221.698 29.5754C222.471 28.263 222.858 26.3325 222.858 23.7837C222.858 22.0983 222.682 20.6823 222.33 19.5357C221.978 18.389 221.48 17.5256 220.838 16.9454C220.195 16.3583 219.436 16.0647 218.558 16.0647C217.239 16.0647 216.196 16.7209 215.429 18.0333C214.663 19.3388 214.276 21.2556 214.269 23.7837C214.262 25.4759 214.431 26.8989 214.777 28.0524C215.129 29.2059 215.626 30.0762 216.269 30.6633C216.911 31.2435 217.674 31.5337 218.558 31.5337ZM230.176 34.3726V31.5958L237.542 24.3742C238.247 23.6628 238.834 23.0308 239.304 22.4782C239.773 21.9256 240.126 21.3903 240.361 20.8722C240.595 20.3542 240.713 19.8016 240.713 19.2145C240.713 18.5445 240.561 17.9712 240.257 17.4945C239.953 17.011 239.535 16.638 239.003 16.3756C238.471 16.1131 237.867 15.9818 237.19 15.9818C236.492 15.9818 235.881 16.1269 235.356 16.417C234.831 16.7002 234.424 17.1043 234.134 17.6292C233.85 18.1542 233.709 18.7793 233.709 19.5046H230.051C230.051 18.1577 230.359 16.9869 230.973 15.9922C231.588 14.9976 232.434 14.2274 233.512 13.6817C234.596 13.136 235.84 12.8632 237.242 12.8632C238.665 12.8632 239.915 13.1291 240.993 13.661C242.07 14.1929 242.906 14.9216 243.5 15.8472C244.101 16.7727 244.401 17.8296 244.401 19.0176C244.401 19.812 244.249 20.5925 243.945 21.3592C243.641 22.1259 243.106 22.9755 242.339 23.908C241.58 24.8405 240.512 25.9698 239.138 27.296L235.481 31.0156V31.1607H244.722V34.3726H230.176ZM247.458 30.4354V27.3789L256.461 13.1533H259.01V17.5049H257.456L251.395 27.1095V27.2753H263.963V30.4354H247.458ZM257.58 34.3726V29.5029L257.622 28.1353V13.1533H261.248V34.3726H257.58Z" fill="black"/>
</svg>
