<svg width="145" height="23" viewBox="0 0 145 23" fill="none" xmlns="http://www.w3.org/2000/svg">
<path d="M19.3247 11.3688L19.3293 11.368L16.5373 13.8902L16.2737 14.1284L16.3518 14.475L17.6787 20.3588L17.6792 20.3609C17.7268 20.5686 17.7144 20.7864 17.6442 20.9858C17.574 21.185 17.4506 21.3536 17.2936 21.4731C17.1371 21.5923 16.9535 21.6581 16.7664 21.6659C16.5796 21.6738 16.3927 21.6238 16.2288 21.5192C16.2286 21.519 16.2284 21.5189 16.2282 21.5187L11.3423 18.3706L11.0132 18.1585L10.684 18.3705L5.79641 21.5179C5.79602 21.5181 5.79563 21.5184 5.79524 21.5186C5.63155 21.6224 5.44509 21.6718 5.25877 21.6637C5.07196 21.6555 4.8888 21.5897 4.73255 21.4706C4.57595 21.3512 4.45273 21.1828 4.38262 20.984C4.31246 20.785 4.29989 20.5675 4.34714 20.3602L4.34733 20.3593L5.67904 14.4755L5.75754 14.1286L5.49366 13.8902L1.13887 9.95616C1.13883 9.95613 1.13879 9.95609 1.13875 9.95605C0.990918 9.82225 0.880644 9.64258 0.825834 9.43748C0.770976 9.23221 0.775157 9.01411 0.837645 8.81159C0.900089 8.60923 1.01684 8.43476 1.16915 8.30764L0.785764 7.84831L1.16915 8.30764C1.32058 8.18125 1.50079 8.10672 1.68682 8.08916L7.39429 7.60709L7.77008 7.57535L7.90853 7.22456L10.1113 1.64366L10.1118 1.64234C10.1886 1.4464 10.3176 1.28326 10.4781 1.17057C10.6382 1.05815 10.8236 1.00006 11.0107 1.00006C11.1977 1.00006 11.3831 1.05815 11.5432 1.17057C11.7037 1.28326 11.8327 1.4464 11.9095 1.64234L11.91 1.64358L14.1118 7.22447L14.2502 7.57534L14.6261 7.60709L20.3337 8.08917C20.334 8.0892 20.3344 8.08923 20.3347 8.08926C20.5215 8.10601 20.7025 8.18015 20.8547 8.30656C21.0076 8.43348 21.1248 8.60798 21.1877 8.81058C21.2505 9.01332 21.2549 9.2318 21.2001 9.43746C21.1453 9.64299 21.0347 9.82302 20.8865 9.95698L19.3247 11.3688Z" stroke="#009688" stroke-width="1.21569"/>
<path d="M50.0786 11.3688L50.0832 11.368L47.2912 13.8902L47.0276 14.1284L47.1058 14.475L48.4326 20.3588L48.4331 20.3609C48.4807 20.5686 48.4683 20.7864 48.3981 20.9858C48.3279 21.185 48.2045 21.3536 48.0476 21.4731C47.891 21.5923 47.7074 21.6581 47.5203 21.6659C47.3335 21.6738 47.1466 21.6238 46.9827 21.5192C46.9825 21.519 46.9823 21.5189 46.9821 21.5187L42.0962 18.3706L41.7671 18.1585L41.4379 18.3705L36.5503 21.5179C36.5499 21.5181 36.5495 21.5184 36.5491 21.5186C36.3855 21.6224 36.199 21.6718 36.0127 21.6637C35.8259 21.6555 35.6427 21.5897 35.4865 21.4706C35.3299 21.3512 35.2066 21.1828 35.1365 20.984C35.0664 20.785 35.0538 20.5675 35.101 20.3602L35.1012 20.3593L36.4329 14.4755L36.5115 14.1286L36.2476 13.8902L31.8928 9.95616C31.8927 9.95613 31.8927 9.95609 31.8927 9.95605C31.7448 9.82225 31.6346 9.64258 31.5797 9.43748C31.5249 9.23221 31.5291 9.01411 31.5916 8.81159C31.654 8.60923 31.7707 8.43476 31.9231 8.30764L31.5397 7.84831L31.9231 8.30764C32.0745 8.18125 32.2547 8.10672 32.4407 8.08916L38.1482 7.60709L38.524 7.57535L38.6624 7.22456L40.8652 1.64366L40.8657 1.64234C40.9425 1.4464 41.0715 1.28326 41.232 1.17057C41.3922 1.05815 41.5775 1.00006 41.7646 1.00006C41.9516 1.00006 42.137 1.05815 42.2971 1.17057C42.4576 1.28326 42.5866 1.4464 42.6634 1.64234L42.6639 1.64358L44.8657 7.22447L45.0041 7.57534L45.38 7.60709L51.0876 8.08917C51.0879 8.0892 51.0883 8.08923 51.0886 8.08926C51.2754 8.10601 51.4564 8.18015 51.6086 8.30656C51.7615 8.43348 51.8787 8.60798 51.9416 8.81058C52.0044 9.01332 52.0088 9.2318 51.954 9.43746C51.8992 9.64299 51.7886 9.82302 51.6404 9.95698L50.0786 11.3688Z" stroke="#009688" stroke-width="1.21569"/>
<path d="M80.8208 11.3688L80.8254 11.368L78.0334 13.8902L77.7698 14.1284L77.8479 14.475L79.1748 20.3588L79.1753 20.3609C79.2229 20.5686 79.2105 20.7864 79.1403 20.9858C79.0701 21.185 78.9467 21.3536 78.7897 21.4731C78.6332 21.5923 78.4496 21.6581 78.2625 21.6659C78.0757 21.6738 77.8888 21.6238 77.7249 21.5192C77.7247 21.519 77.7245 21.5189 77.7242 21.5187L72.8384 18.3706L72.5093 18.1585L72.1801 18.3705L67.2925 21.5179C67.2921 21.5181 67.2917 21.5184 67.2913 21.5186C67.1276 21.6224 66.9412 21.6718 66.7549 21.6637C66.5681 21.6555 66.3849 21.5897 66.2286 21.4706C66.072 21.3512 65.9488 21.1828 65.8787 20.984C65.8086 20.785 65.796 20.5675 65.8432 20.3602L65.8434 20.3593L67.1751 14.4755L67.2536 14.1286L66.9898 13.8902L62.635 9.95616C62.6349 9.95613 62.6349 9.95609 62.6348 9.95605C62.487 9.82225 62.3767 9.64258 62.3219 9.43748C62.2671 9.23221 62.2713 9.01411 62.3337 8.81159C62.3962 8.60923 62.5129 8.43476 62.6652 8.30764L62.2819 7.84831L62.6652 8.30764C62.8167 8.18125 62.9969 8.10672 63.1829 8.08916L68.8904 7.60709L69.2662 7.57535L69.4046 7.22456L71.6074 1.64366L71.6079 1.64234C71.6847 1.4464 71.8137 1.28326 71.9742 1.17057C72.1343 1.05815 72.3197 1.00006 72.5068 1.00006C72.6938 1.00006 72.8792 1.05815 73.0393 1.17057C73.1998 1.28326 73.3288 1.4464 73.4056 1.64234L73.4061 1.64358L75.6079 7.22447L75.7463 7.57534L76.1222 7.60709L81.8298 8.08917C81.8301 8.0892 81.8305 8.08923 81.8308 8.08926C82.0175 8.10601 82.1986 8.18015 82.3508 8.30656C82.5037 8.43348 82.6209 8.60798 82.6838 8.81058C82.7466 9.01332 82.751 9.2318 82.6962 9.43746C82.6413 9.64299 82.5308 9.82302 82.3826 9.95698L80.8208 11.3688Z" stroke="#009688" stroke-width="1.21569"/>
<path d="M111.571 11.3688L111.575 11.368L108.783 13.8902L108.52 14.1284L108.598 14.475L109.925 20.3588L109.925 20.3609C109.973 20.5686 109.96 20.7864 109.89 20.9858C109.82 21.185 109.697 21.3536 109.54 21.4731C109.383 21.5923 109.2 21.6581 109.013 21.6659C108.826 21.6738 108.639 21.6238 108.475 21.5192C108.475 21.519 108.474 21.5189 108.474 21.5187L103.588 18.3706L103.259 18.1585L102.93 18.3705L98.0425 21.5179C98.0421 21.5181 98.0417 21.5184 98.0413 21.5186C97.8776 21.6224 97.6912 21.6718 97.5049 21.6637C97.3181 21.6555 97.1349 21.5897 96.9786 21.4706C96.822 21.3512 96.6988 21.1828 96.6287 20.984C96.5586 20.785 96.546 20.5675 96.5932 20.3602L96.5934 20.3593L97.9251 14.4755L98.0036 14.1286L97.7398 13.8902L93.385 9.95616C93.3849 9.95613 93.3849 9.95609 93.3848 9.95605C93.237 9.82225 93.1267 9.64258 93.0719 9.43748C93.0171 9.23221 93.0213 9.01411 93.0837 8.81159C93.1462 8.60923 93.2629 8.43476 93.4152 8.30764L93.0319 7.84831L93.4152 8.30764C93.5667 8.18125 93.7469 8.10672 93.9329 8.08916L99.6404 7.60709L100.016 7.57535L100.155 7.22456L102.357 1.64366L102.358 1.64234C102.435 1.4464 102.564 1.28326 102.724 1.17057C102.884 1.05815 103.07 1.00006 103.257 1.00006C103.444 1.00006 103.629 1.05815 103.789 1.17057C103.95 1.28326 104.079 1.4464 104.156 1.64234L104.156 1.64358L106.358 7.22447L106.496 7.57534L106.872 7.60709L112.58 8.08917C112.58 8.0892 112.58 8.08923 112.581 8.08926C112.768 8.10601 112.949 8.18015 113.101 8.30656C113.254 8.43348 113.371 8.60798 113.434 8.81058C113.497 9.01332 113.501 9.2318 113.446 9.43746C113.391 9.64299 113.281 9.82302 113.133 9.95698L111.571 11.3688Z" stroke="#009688" stroke-width="1.21569"/>
<path d="M142.317 11.3688L142.321 11.368L139.53 13.8902L139.266 14.1284L139.344 14.475L140.671 20.3588L140.671 20.3609C140.719 20.5686 140.707 20.7864 140.636 20.9858C140.566 21.185 140.443 21.3536 140.286 21.4731C140.129 21.5923 139.946 21.6581 139.759 21.6659C139.572 21.6738 139.385 21.6238 139.221 21.5192C139.221 21.519 139.221 21.5189 139.22 21.5187L134.334 18.3706L134.005 18.1585L133.676 18.3705L128.789 21.5179C128.788 21.5181 128.788 21.5184 128.787 21.5186C128.624 21.6224 128.437 21.6718 128.251 21.6637C128.064 21.6555 127.881 21.5897 127.725 21.4706C127.568 21.3512 127.445 21.1828 127.375 20.984C127.305 20.785 127.292 20.5675 127.339 20.3602L127.34 20.3593L128.671 14.4755L128.75 14.1286L128.486 13.8902L124.131 9.95616C124.131 9.95613 124.131 9.95609 124.131 9.95605C123.983 9.82225 123.873 9.64258 123.818 9.43748C123.763 9.23221 123.767 9.01411 123.83 8.81159C123.892 8.60923 124.009 8.43476 124.161 8.30764L123.778 7.84831L124.161 8.30764C124.313 8.18125 124.493 8.10672 124.679 8.08916L130.386 7.60709L130.762 7.57535L130.901 7.22456L133.103 1.64366L133.104 1.64234C133.181 1.4464 133.31 1.28326 133.47 1.17057C133.63 1.05815 133.816 1.00006 134.003 1.00006C134.19 1.00006 134.375 1.05815 134.535 1.17057C134.696 1.28326 134.825 1.4464 134.902 1.64234L134.902 1.64358L137.104 7.22447L137.242 7.57534L137.618 7.60709L143.326 8.08917C143.326 8.0892 143.327 8.08923 143.327 8.08926C143.514 8.10601 143.695 8.18015 143.847 8.30656C144 8.43348 144.117 8.60798 144.18 8.81058C144.243 9.01332 144.247 9.2318 144.192 9.43746C144.137 9.64299 144.027 9.82302 143.879 9.95698L142.317 11.3688Z" stroke="#009688" stroke-width="1.21569"/>
</svg>
