<svg width="18" height="11" viewBox="0 0 18 11" fill="none" xmlns="http://www.w3.org/2000/svg">
<path fill-rule="evenodd" clip-rule="evenodd" d="M10.1754 10.1189C9.93566 10.3566 9.61057 10.4902 9.27161 10.4902C8.93264 10.4902 8.60755 10.3566 8.36783 10.1189L1.13635 2.94501C1.01426 2.82803 0.916873 2.6881 0.849877 2.53338C0.782881 2.37866 0.747617 2.21226 0.746142 2.04387C0.744667 1.87549 0.777011 1.7085 0.841286 1.55265C0.905562 1.3968 1.00048 1.25521 1.12051 1.13614C1.24053 1.01707 1.38326 0.922907 1.54036 0.859143C1.69746 0.79538 1.86579 0.763294 2.03553 0.764757C2.20526 0.766221 2.373 0.801204 2.52896 0.867666C2.68492 0.934128 2.82598 1.03074 2.9439 1.15186L9.27161 7.42917L15.5993 1.15186C15.8404 0.920856 16.1633 0.793034 16.4985 0.795923C16.8337 0.798813 17.1543 0.932182 17.3913 1.16731C17.6283 1.40243 17.7627 1.7205 17.7657 2.053C17.7686 2.3855 17.6397 2.70584 17.4069 2.94501L10.1754 10.1189Z" fill="white"/>
</svg>
