<svg width="14" height="20" viewBox="0 0 14 20" fill="none" xmlns="http://www.w3.org/2000/svg">
<path d="M6.86596 0.0392456C3.17472 0.0392456 0.179688 2.8401 0.179688 6.29135C0.179688 11.8488 6.86596 19.4902 6.86596 19.4902C6.86596 19.4902 13.5522 11.8488 13.5522 6.29135C13.5522 2.8401 10.5572 0.0392456 6.86596 0.0392456ZM6.86596 9.76474C6.33699 9.76474 5.81991 9.60177 5.38008 9.29644C4.94026 8.99111 4.59746 8.55713 4.39504 8.04939C4.19261 7.54165 4.13965 6.98294 4.24284 6.44392C4.34604 5.90491 4.60076 5.40979 4.9748 5.02118C5.34883 4.63257 5.82539 4.36792 6.34419 4.2607C6.863 4.15349 7.40075 4.20852 7.88945 4.41883C8.37815 4.62914 8.79586 4.9853 9.08974 5.44226C9.38361 5.89921 9.54047 6.43645 9.54047 6.98602C9.5397 7.72274 9.25767 8.42905 8.75627 8.94998C8.25487 9.47092 7.57505 9.76393 6.86596 9.76474Z" fill="black"/>
</svg>
